%TF.GenerationSoftware,KiCad,Pcbnew,8.0.6*%
%TF.CreationDate,2024-11-15T00:49:57-05:00*%
%TF.ProjectId,LinePCB,4c696e65-5043-4422-9e6b-696361645f70,rev?*%
%TF.SameCoordinates,Original*%
%TF.FileFunction,Profile,NP*%
%FSLAX46Y46*%
G04 Gerber Fmt 4.6, Leading zero omitted, Abs format (unit mm)*
G04 Created by KiCad (PCBNEW 8.0.6) date 2024-11-15 00:49:57*
%MOMM*%
%LPD*%
G01*
G04 APERTURE LIST*
%TA.AperFunction,Profile*%
%ADD10C,0.200000*%
%TD*%
G04 APERTURE END LIST*
D10*
X53324001Y-117926270D02*
G75*
G02*
X54943751Y-112626728I4200799J1613370D01*
G01*
X63953905Y-105655418D02*
G75*
G02*
X62864136Y-107080803I-2818805J1025818D01*
G01*
X80860215Y-146191651D02*
G75*
G02*
X53324001Y-117926270I19139785J46191651D01*
G01*
X114300000Y-57041800D02*
G75*
G02*
X119139772Y-53808379I3500000J0D01*
G01*
X31021874Y-75181415D02*
X30151510Y-72400712D01*
X21883400Y-115847419D02*
G75*
G02*
X16707567Y-111538498I-223080J4995079D01*
G01*
X37893618Y-125820564D02*
X45335315Y-122350444D01*
X117799709Y-125238871D02*
G75*
G02*
X114300018Y-122280782I-499709J2958071D01*
G01*
X45335315Y-122350444D02*
G75*
G02*
X50617283Y-124214601I1690485J-3625256D01*
G01*
X16707566Y-88461502D02*
G75*
G02*
X21883400Y-84152580I4952704J-686098D01*
G01*
X152927440Y-114956140D02*
G75*
G02*
X154852074Y-113500071I1924560J-543860D01*
G01*
X119139785Y-146191651D02*
G75*
G02*
X114299999Y-142973166I-1339785J3233451D01*
G01*
X64095415Y-95152044D02*
X64095415Y-104852900D01*
X82200291Y-132535491D02*
G75*
G02*
X82200291Y-125238869I-616311J3648311D01*
G01*
X64095415Y-104852900D02*
G75*
G02*
X63953909Y-105655420I-2346415J0D01*
G01*
X176487850Y-89999920D02*
X176487850Y-95412147D01*
X120016017Y-128887181D02*
G75*
G02*
X116816017Y-128887181I-1600000J0D01*
G01*
X116816017Y-128887181D02*
G75*
G02*
X120016017Y-128887181I1600000J0D01*
G01*
X114300000Y-57041800D02*
X114300000Y-100000000D01*
X31018702Y-124828717D02*
X30151514Y-127599274D01*
X85700000Y-100000000D02*
X85700000Y-122280800D01*
X50617280Y-75785397D02*
G75*
G02*
X45335317Y-77649553I-3591480J1761097D01*
G01*
X62855478Y-92913132D02*
G75*
G02*
X63953911Y-94344580I-1720578J-2457468D01*
G01*
X154852100Y-86500000D02*
G75*
G02*
X152927464Y-85043853I0J2000000D01*
G01*
X16707566Y-111538498D02*
G75*
G02*
X16707566Y-88461502I83292434J11538498D01*
G01*
X114300000Y-135493600D02*
G75*
G02*
X117799706Y-132535510I3000000J0D01*
G01*
X37886952Y-74176327D02*
X45335315Y-77649556D01*
X83183983Y-128887181D02*
G75*
G02*
X79983983Y-128887181I-1600000J0D01*
G01*
X79983983Y-128887181D02*
G75*
G02*
X83183983Y-128887181I1600000J0D01*
G01*
X53324001Y-82073730D02*
G75*
G02*
X80860215Y-53808349I46675999J-17926270D01*
G01*
X119139785Y-53808349D02*
G75*
G02*
X150000000Y-100000000I-19139785J-46191651D01*
G01*
X54943747Y-112626722D02*
X62864137Y-107080804D01*
X150000000Y-100000000D02*
G75*
G02*
X119139785Y-146191651I-50000000J0D01*
G01*
X152927440Y-114956140D02*
G75*
G02*
X50617280Y-124214603I-52927440J14956140D01*
G01*
X176487850Y-110000000D02*
X176487850Y-104600000D01*
X85700000Y-142958200D02*
G75*
G02*
X80860228Y-146191621I-3500000J0D01*
G01*
X177988000Y-96900000D02*
G75*
G02*
X176487851Y-95412147I0J1500200D01*
G01*
X180987850Y-96900000D02*
G75*
G02*
X180987850Y-103100000I0J-3100000D01*
G01*
X172987930Y-86500000D02*
X154852100Y-86500000D01*
X36068440Y-129451297D02*
X36823519Y-127038917D01*
X34709980Y-71474722D02*
G75*
G02*
X31509980Y-71474722I-1600000J0D01*
G01*
X31509980Y-71474722D02*
G75*
G02*
X34709980Y-71474722I1600000J0D01*
G01*
X36073803Y-70565839D02*
X36823540Y-72961151D01*
X180987850Y-103100000D02*
X177987850Y-103100000D01*
X82200291Y-132535491D02*
G75*
G02*
X85700001Y-135504277I499709J-2958109D01*
G01*
X176487850Y-104600000D02*
G75*
G02*
X177987850Y-103099950I1500050J0D01*
G01*
X31021874Y-75181415D02*
G75*
G02*
X30819078Y-76489900I-1431574J-448085D01*
G01*
X30819086Y-76489905D02*
X27333004Y-81468545D01*
X172987850Y-113500000D02*
X154852074Y-113500000D01*
X85700000Y-135504277D02*
X85700000Y-142958200D01*
X27333004Y-81468545D02*
G75*
G02*
X21883400Y-84152580I-5168034J3618665D01*
G01*
X37886952Y-74176327D02*
G75*
G02*
X36823509Y-72961161I845248J1812627D01*
G01*
X182587850Y-100000000D02*
G75*
G02*
X179387850Y-100000000I-1600000J0D01*
G01*
X179387850Y-100000000D02*
G75*
G02*
X182587850Y-100000000I1600000J0D01*
G01*
X34709980Y-128525278D02*
G75*
G02*
X31509980Y-128525278I-1600000J0D01*
G01*
X31509980Y-128525278D02*
G75*
G02*
X34709980Y-128525278I1600000J0D01*
G01*
X85700000Y-122280800D02*
G75*
G02*
X82200288Y-125238889I-3000000J0D01*
G01*
X117799709Y-125238871D02*
G75*
G02*
X117799703Y-132535528I616291J-3648329D01*
G01*
X54943722Y-87373261D02*
X62855478Y-92913132D01*
X172987930Y-86500000D02*
G75*
G02*
X176487800Y-89999920I-30J-3499900D01*
G01*
X36823519Y-127038917D02*
G75*
G02*
X37893618Y-125820565I1908881J-597483D01*
G01*
X114300000Y-135493600D02*
X114300000Y-142973166D01*
X36068440Y-129451297D02*
G75*
G02*
X30151511Y-127599273I-2958460J926027D01*
G01*
X21883400Y-115847419D02*
G75*
G02*
X27324647Y-118519526I281530J-6302811D01*
G01*
X30819086Y-123510095D02*
G75*
G02*
X31018747Y-124828731I-1228886J-860505D01*
G01*
X63953905Y-94344582D02*
G75*
G02*
X64095414Y-95152044I-2205905J-802718D01*
G01*
X114300000Y-100000000D02*
X114300000Y-122280782D01*
X85700000Y-57056766D02*
X85700000Y-100000000D01*
X30819086Y-123510095D02*
X27324650Y-118519524D01*
X30151510Y-72400712D02*
G75*
G02*
X36073799Y-70565840I2958500J925972D01*
G01*
X80860215Y-53808349D02*
G75*
G02*
X85700001Y-57056766I1339785J-3233451D01*
G01*
X180987850Y-96900000D02*
X177988000Y-96900000D01*
X50617280Y-75785397D02*
G75*
G02*
X152927440Y-85043860I49382720J-24214603D01*
G01*
X54943722Y-87373261D02*
G75*
G02*
X53323994Y-82073727I2581078J3686161D01*
G01*
X176487850Y-110000000D02*
G75*
G02*
X172987850Y-113500050I-3500050J0D01*
G01*
M02*
