M48
; DRILL file {KiCad 8.0.6} date 2024-11-15T00:49:54-0500
; FORMAT={-:-/ absolute / inch / decimal}
; #@! TF.CreationDate,2024-11-15T00:49:54-05:00
; #@! TF.GenerationSoftware,Kicad,Pcbnew,8.0.6
; #@! TF.FileFunction,Plated,1,4,PTH
FMAT,2
INCH
; #@! TA.AperFunction,Plated,PTH,ViaDrill
T1C0.0118
; #@! TA.AperFunction,Plated,PTH,ComponentDrill
T2C0.0315
; #@! TA.AperFunction,Plated,PTH,ComponentDrill
T3C0.0394
; #@! TA.AperFunction,Plated,PTH,ComponentDrill
T4C0.0433
; #@! TA.AperFunction,Plated,PTH,ComponentDrill
T5C0.0472
; #@! TA.AperFunction,Plated,PTH,ComponentDrill
T6C0.0551
; #@! TA.AperFunction,Plated,PTH,ComponentDrill
T7C0.1260
%
G90
G05
T1
X0.9531Y-4.383
X1.1406Y-3.7039
X1.9202Y-3.7552
X1.9416Y-3.2082
X2.0069Y-4.3143
X2.0169Y-3.2347
X2.0171Y-4.5917
X2.047Y-4.865
X2.0661Y-4.7106
X2.088Y-2.9332
X2.0967Y-4.8907
X2.1138Y-4.9902
X2.1185Y-3.0921
X2.1811Y-5.0027
X2.2118Y-2.6827
X2.2317Y-2.8713
X2.2732Y-5.1183
X2.3347Y-5.2761
X2.3525Y-5.3263
X2.4476Y-5.4264
X2.4659Y-2.5628
X2.5251Y-5.4476
X2.5418Y-5.3993
X2.5641Y-2.3044
X2.5921Y-5.4692
X2.6532Y-2.3823
X2.8124Y-5.713
X2.8765Y-2.2295
X2.8783Y-5.6662
X2.937Y-5.8008
X2.9645Y-2.1449
X2.986Y-2.1741
X3.0401Y-5.7554
X3.087Y-5.8476
X3.2596Y-5.9325
X3.3408Y-1.8944
X3.3448Y-5.9442
X3.4014Y-5.8478
X3.521Y-3.6395
X3.5224Y-1.8705
X3.5312Y-3.3341
X3.5368Y-3.2693
X3.538Y-3.468
X3.5398Y-3.2159
X3.5881Y-2.0271
X3.623Y-5.9346
X3.6318Y-3.4187
X3.6319Y-3.5675
X3.6583Y-3.438
X3.7888Y-4.3078
X3.8012Y-6.0417
X3.8046Y-1.9138
X3.8201Y-3.4459
X3.8203Y-3.2873
X3.8441Y-4.3242
X3.8523Y-2.2248
X3.8528Y-3.2976
X3.937Y-5.7665
X3.9591Y-4.3297
X4.0118Y-1.8752
X4.0191Y-4.3303
X4.0387Y-4.0421
X4.0712Y-4.3306
X4.075Y-1.8342
X4.1347Y-4.3301
X4.1438Y-3.5462
X4.1442Y-3.2438
X4.1442Y-3.5965
X4.1825Y-4.3305
X4.2499Y-3.3829
X4.2502Y-3.3418
X4.2665Y-2.163
X4.2926Y-1.9085
X4.3491Y-6.0048
X4.4025Y-1.9654
X4.4181Y-2.2499
X4.4314Y-3.2764
X4.4327Y-3.3615
X4.4327Y-3.4499
X4.4925Y-5.8356
X4.5254Y-5.8593
X4.5524Y-5.9783
X4.6594Y-2.0094
X4.6831Y-1.9486
X4.7813Y-5.7644
X4.8024Y-2.0008
X4.8731Y-2.1649
X4.896Y-2.0988
X4.9383Y-2.1075
X4.9535Y-5.813
X5.0268Y-2.1059
X5.1104Y-2.1824
X5.2863Y-5.5662
X5.3264Y-5.5232
X5.3793Y-5.4948
X5.4264Y-2.4476
X5.4287Y-5.4287
X5.4873Y-2.5135
X5.5145Y-2.6494
X5.5652Y-5.2659
X5.5652Y-2.7744
X5.6287Y-2.8657
X5.6567Y-2.8841
X5.7628Y-4.9918
X5.7707Y-4.7472
X5.7809Y-4.7834
X5.7873Y-2.9697
X5.803Y-4.9516
X5.8211Y-4.924
X5.85Y-3.0695
X5.8525Y-3.005
X5.8917Y-3.4768
X5.8972Y-4.3996
X5.9072Y-3.2032
X5.9106Y-4.6854
X5.9462Y-3.7222
X5.9679Y-4.1523
X5.9852Y-4.0145
X5.9963Y-4.1051
X6.0221Y-4.4331
X6.0433Y-4.0023
X6.0609Y-3.5151
X6.1997Y-3.8973
X6.2146Y-3.4496
T2
X0.7766Y-4.1681
X0.7766Y-4.4681
X0.7809Y-3.4043
X0.7809Y-3.7043
X0.8766Y-4.1681
X0.8766Y-4.4681
X0.8809Y-3.4043
X0.8809Y-3.7043
T3
X2.0807Y-4.126
X2.0807Y-4.2244
X6.5882Y-3.7339
X6.5882Y-3.8339
X6.5882Y-3.9339
X6.5882Y-4.0339
X6.5882Y-4.1339
X6.6882Y-3.7339
X6.6882Y-3.8339
X6.6882Y-3.9339
X6.6882Y-4.0339
X6.6882Y-4.1339
T4
X1.4833Y-3.0883
X1.4873Y-4.7861
X1.5739Y-3.1306
X1.578Y-4.7438
X1.6646Y-3.1728
X1.6686Y-4.7016
X2.0593Y-3.6953
X2.0593Y-3.8953
T5
X1.2311Y-3.5433
X1.2311Y-4.3307
X1.5264Y-3.5433
X1.5264Y-4.3307
T6
X2.3441Y-3.6618
X2.3441Y-4.1618
T7
X0.7481Y-3.937
X3.5551Y-2.6854
X4.3189Y-2.6854
M30
