%TF.GenerationSoftware,KiCad,Pcbnew,8.0.6*%
%TF.CreationDate,2024-11-15T00:49:57-05:00*%
%TF.ProjectId,LinePCB,4c696e65-5043-4422-9e6b-696361645f70,rev?*%
%TF.SameCoordinates,Original*%
%TF.FileFunction,Legend,Top*%
%TF.FilePolarity,Positive*%
%FSLAX46Y46*%
G04 Gerber Fmt 4.6, Leading zero omitted, Abs format (unit mm)*
G04 Created by KiCad (PCBNEW 8.0.6) date 2024-11-15 00:49:57*
%MOMM*%
%LPD*%
G01*
G04 APERTURE LIST*
%ADD10C,0.150000*%
%ADD11C,0.120000*%
G04 APERTURE END LIST*
D10*
X18240095Y-96654819D02*
X18240095Y-95654819D01*
X18240095Y-96131009D02*
X18811523Y-96131009D01*
X18811523Y-96654819D02*
X18811523Y-95654819D01*
X19811523Y-96654819D02*
X19240095Y-96654819D01*
X19525809Y-96654819D02*
X19525809Y-95654819D01*
X19525809Y-95654819D02*
X19430571Y-95797676D01*
X19430571Y-95797676D02*
X19335333Y-95892914D01*
X19335333Y-95892914D02*
X19240095Y-95940533D01*
X168276666Y-88194819D02*
X168276666Y-88909104D01*
X168276666Y-88909104D02*
X168229047Y-89051961D01*
X168229047Y-89051961D02*
X168133809Y-89147200D01*
X168133809Y-89147200D02*
X167990952Y-89194819D01*
X167990952Y-89194819D02*
X167895714Y-89194819D01*
X169276666Y-89194819D02*
X168705238Y-89194819D01*
X168990952Y-89194819D02*
X168990952Y-88194819D01*
X168990952Y-88194819D02*
X168895714Y-88337676D01*
X168895714Y-88337676D02*
X168800476Y-88432914D01*
X168800476Y-88432914D02*
X168705238Y-88480533D01*
X160067142Y-95714819D02*
X159733809Y-95238628D01*
X159495714Y-95714819D02*
X159495714Y-94714819D01*
X159495714Y-94714819D02*
X159876666Y-94714819D01*
X159876666Y-94714819D02*
X159971904Y-94762438D01*
X159971904Y-94762438D02*
X160019523Y-94810057D01*
X160019523Y-94810057D02*
X160067142Y-94905295D01*
X160067142Y-94905295D02*
X160067142Y-95048152D01*
X160067142Y-95048152D02*
X160019523Y-95143390D01*
X160019523Y-95143390D02*
X159971904Y-95191009D01*
X159971904Y-95191009D02*
X159876666Y-95238628D01*
X159876666Y-95238628D02*
X159495714Y-95238628D01*
X160971904Y-94714819D02*
X160495714Y-94714819D01*
X160495714Y-94714819D02*
X160448095Y-95191009D01*
X160448095Y-95191009D02*
X160495714Y-95143390D01*
X160495714Y-95143390D02*
X160590952Y-95095771D01*
X160590952Y-95095771D02*
X160829047Y-95095771D01*
X160829047Y-95095771D02*
X160924285Y-95143390D01*
X160924285Y-95143390D02*
X160971904Y-95191009D01*
X160971904Y-95191009D02*
X161019523Y-95286247D01*
X161019523Y-95286247D02*
X161019523Y-95524342D01*
X161019523Y-95524342D02*
X160971904Y-95619580D01*
X160971904Y-95619580D02*
X160924285Y-95667200D01*
X160924285Y-95667200D02*
X160829047Y-95714819D01*
X160829047Y-95714819D02*
X160590952Y-95714819D01*
X160590952Y-95714819D02*
X160495714Y-95667200D01*
X160495714Y-95667200D02*
X160448095Y-95619580D01*
X161971904Y-95714819D02*
X161400476Y-95714819D01*
X161686190Y-95714819D02*
X161686190Y-94714819D01*
X161686190Y-94714819D02*
X161590952Y-94857676D01*
X161590952Y-94857676D02*
X161495714Y-94952914D01*
X161495714Y-94952914D02*
X161400476Y-95000533D01*
X57029819Y-97042857D02*
X56553628Y-97376190D01*
X57029819Y-97614285D02*
X56029819Y-97614285D01*
X56029819Y-97614285D02*
X56029819Y-97233333D01*
X56029819Y-97233333D02*
X56077438Y-97138095D01*
X56077438Y-97138095D02*
X56125057Y-97090476D01*
X56125057Y-97090476D02*
X56220295Y-97042857D01*
X56220295Y-97042857D02*
X56363152Y-97042857D01*
X56363152Y-97042857D02*
X56458390Y-97090476D01*
X56458390Y-97090476D02*
X56506009Y-97138095D01*
X56506009Y-97138095D02*
X56553628Y-97233333D01*
X56553628Y-97233333D02*
X56553628Y-97614285D01*
X56029819Y-96138095D02*
X56029819Y-96614285D01*
X56029819Y-96614285D02*
X56506009Y-96661904D01*
X56506009Y-96661904D02*
X56458390Y-96614285D01*
X56458390Y-96614285D02*
X56410771Y-96519047D01*
X56410771Y-96519047D02*
X56410771Y-96280952D01*
X56410771Y-96280952D02*
X56458390Y-96185714D01*
X56458390Y-96185714D02*
X56506009Y-96138095D01*
X56506009Y-96138095D02*
X56601247Y-96090476D01*
X56601247Y-96090476D02*
X56839342Y-96090476D01*
X56839342Y-96090476D02*
X56934580Y-96138095D01*
X56934580Y-96138095D02*
X56982200Y-96185714D01*
X56982200Y-96185714D02*
X57029819Y-96280952D01*
X57029819Y-96280952D02*
X57029819Y-96519047D01*
X57029819Y-96519047D02*
X56982200Y-96614285D01*
X56982200Y-96614285D02*
X56934580Y-96661904D01*
X56125057Y-95709523D02*
X56077438Y-95661904D01*
X56077438Y-95661904D02*
X56029819Y-95566666D01*
X56029819Y-95566666D02*
X56029819Y-95328571D01*
X56029819Y-95328571D02*
X56077438Y-95233333D01*
X56077438Y-95233333D02*
X56125057Y-95185714D01*
X56125057Y-95185714D02*
X56220295Y-95138095D01*
X56220295Y-95138095D02*
X56315533Y-95138095D01*
X56315533Y-95138095D02*
X56458390Y-95185714D01*
X56458390Y-95185714D02*
X57029819Y-95757142D01*
X57029819Y-95757142D02*
X57029819Y-95138095D01*
X56434819Y-104538094D02*
X57244342Y-104538094D01*
X57244342Y-104538094D02*
X57339580Y-104490475D01*
X57339580Y-104490475D02*
X57387200Y-104442856D01*
X57387200Y-104442856D02*
X57434819Y-104347618D01*
X57434819Y-104347618D02*
X57434819Y-104157142D01*
X57434819Y-104157142D02*
X57387200Y-104061904D01*
X57387200Y-104061904D02*
X57339580Y-104014285D01*
X57339580Y-104014285D02*
X57244342Y-103966666D01*
X57244342Y-103966666D02*
X56434819Y-103966666D01*
X57434819Y-102966666D02*
X57434819Y-103538094D01*
X57434819Y-103252380D02*
X56434819Y-103252380D01*
X56434819Y-103252380D02*
X56577676Y-103347618D01*
X56577676Y-103347618D02*
X56672914Y-103442856D01*
X56672914Y-103442856D02*
X56720533Y-103538094D01*
X56434819Y-102061904D02*
X56434819Y-102538094D01*
X56434819Y-102538094D02*
X56911009Y-102585713D01*
X56911009Y-102585713D02*
X56863390Y-102538094D01*
X56863390Y-102538094D02*
X56815771Y-102442856D01*
X56815771Y-102442856D02*
X56815771Y-102204761D01*
X56815771Y-102204761D02*
X56863390Y-102109523D01*
X56863390Y-102109523D02*
X56911009Y-102061904D01*
X56911009Y-102061904D02*
X57006247Y-102014285D01*
X57006247Y-102014285D02*
X57244342Y-102014285D01*
X57244342Y-102014285D02*
X57339580Y-102061904D01*
X57339580Y-102061904D02*
X57387200Y-102109523D01*
X57387200Y-102109523D02*
X57434819Y-102204761D01*
X57434819Y-102204761D02*
X57434819Y-102442856D01*
X57434819Y-102442856D02*
X57387200Y-102538094D01*
X57387200Y-102538094D02*
X57339580Y-102585713D01*
X57594819Y-105971904D02*
X56594819Y-105971904D01*
X57594819Y-105400476D02*
X57023390Y-105829047D01*
X56594819Y-105400476D02*
X57166247Y-105971904D01*
X159927142Y-90074819D02*
X159593809Y-89598628D01*
X159355714Y-90074819D02*
X159355714Y-89074819D01*
X159355714Y-89074819D02*
X159736666Y-89074819D01*
X159736666Y-89074819D02*
X159831904Y-89122438D01*
X159831904Y-89122438D02*
X159879523Y-89170057D01*
X159879523Y-89170057D02*
X159927142Y-89265295D01*
X159927142Y-89265295D02*
X159927142Y-89408152D01*
X159927142Y-89408152D02*
X159879523Y-89503390D01*
X159879523Y-89503390D02*
X159831904Y-89551009D01*
X159831904Y-89551009D02*
X159736666Y-89598628D01*
X159736666Y-89598628D02*
X159355714Y-89598628D01*
X160784285Y-89408152D02*
X160784285Y-90074819D01*
X160546190Y-89027200D02*
X160308095Y-89741485D01*
X160308095Y-89741485D02*
X160927142Y-89741485D01*
X161355714Y-90074819D02*
X161546190Y-90074819D01*
X161546190Y-90074819D02*
X161641428Y-90027200D01*
X161641428Y-90027200D02*
X161689047Y-89979580D01*
X161689047Y-89979580D02*
X161784285Y-89836723D01*
X161784285Y-89836723D02*
X161831904Y-89646247D01*
X161831904Y-89646247D02*
X161831904Y-89265295D01*
X161831904Y-89265295D02*
X161784285Y-89170057D01*
X161784285Y-89170057D02*
X161736666Y-89122438D01*
X161736666Y-89122438D02*
X161641428Y-89074819D01*
X161641428Y-89074819D02*
X161450952Y-89074819D01*
X161450952Y-89074819D02*
X161355714Y-89122438D01*
X161355714Y-89122438D02*
X161308095Y-89170057D01*
X161308095Y-89170057D02*
X161260476Y-89265295D01*
X161260476Y-89265295D02*
X161260476Y-89503390D01*
X161260476Y-89503390D02*
X161308095Y-89598628D01*
X161308095Y-89598628D02*
X161355714Y-89646247D01*
X161355714Y-89646247D02*
X161450952Y-89693866D01*
X161450952Y-89693866D02*
X161641428Y-89693866D01*
X161641428Y-89693866D02*
X161736666Y-89646247D01*
X161736666Y-89646247D02*
X161784285Y-89598628D01*
X161784285Y-89598628D02*
X161831904Y-89503390D01*
X16959819Y-91518094D02*
X17769342Y-91518094D01*
X17769342Y-91518094D02*
X17864580Y-91470475D01*
X17864580Y-91470475D02*
X17912200Y-91422856D01*
X17912200Y-91422856D02*
X17959819Y-91327618D01*
X17959819Y-91327618D02*
X17959819Y-91137142D01*
X17959819Y-91137142D02*
X17912200Y-91041904D01*
X17912200Y-91041904D02*
X17864580Y-90994285D01*
X17864580Y-90994285D02*
X17769342Y-90946666D01*
X17769342Y-90946666D02*
X16959819Y-90946666D01*
X17959819Y-89946666D02*
X17959819Y-90518094D01*
X17959819Y-90232380D02*
X16959819Y-90232380D01*
X16959819Y-90232380D02*
X17102676Y-90327618D01*
X17102676Y-90327618D02*
X17197914Y-90422856D01*
X17197914Y-90422856D02*
X17245533Y-90518094D01*
X17055057Y-89565713D02*
X17007438Y-89518094D01*
X17007438Y-89518094D02*
X16959819Y-89422856D01*
X16959819Y-89422856D02*
X16959819Y-89184761D01*
X16959819Y-89184761D02*
X17007438Y-89089523D01*
X17007438Y-89089523D02*
X17055057Y-89041904D01*
X17055057Y-89041904D02*
X17150295Y-88994285D01*
X17150295Y-88994285D02*
X17245533Y-88994285D01*
X17245533Y-88994285D02*
X17388390Y-89041904D01*
X17388390Y-89041904D02*
X17959819Y-89613332D01*
X17959819Y-89613332D02*
X17959819Y-88994285D01*
X33781905Y-99704819D02*
X33781905Y-100514342D01*
X33781905Y-100514342D02*
X33829524Y-100609580D01*
X33829524Y-100609580D02*
X33877143Y-100657200D01*
X33877143Y-100657200D02*
X33972381Y-100704819D01*
X33972381Y-100704819D02*
X34162857Y-100704819D01*
X34162857Y-100704819D02*
X34258095Y-100657200D01*
X34258095Y-100657200D02*
X34305714Y-100609580D01*
X34305714Y-100609580D02*
X34353333Y-100514342D01*
X34353333Y-100514342D02*
X34353333Y-99704819D01*
X35353333Y-100704819D02*
X34781905Y-100704819D01*
X35067619Y-100704819D02*
X35067619Y-99704819D01*
X35067619Y-99704819D02*
X34972381Y-99847676D01*
X34972381Y-99847676D02*
X34877143Y-99942914D01*
X34877143Y-99942914D02*
X34781905Y-99990533D01*
X35972381Y-99704819D02*
X36067619Y-99704819D01*
X36067619Y-99704819D02*
X36162857Y-99752438D01*
X36162857Y-99752438D02*
X36210476Y-99800057D01*
X36210476Y-99800057D02*
X36258095Y-99895295D01*
X36258095Y-99895295D02*
X36305714Y-100085771D01*
X36305714Y-100085771D02*
X36305714Y-100323866D01*
X36305714Y-100323866D02*
X36258095Y-100514342D01*
X36258095Y-100514342D02*
X36210476Y-100609580D01*
X36210476Y-100609580D02*
X36162857Y-100657200D01*
X36162857Y-100657200D02*
X36067619Y-100704819D01*
X36067619Y-100704819D02*
X35972381Y-100704819D01*
X35972381Y-100704819D02*
X35877143Y-100657200D01*
X35877143Y-100657200D02*
X35829524Y-100609580D01*
X35829524Y-100609580D02*
X35781905Y-100514342D01*
X35781905Y-100514342D02*
X35734286Y-100323866D01*
X35734286Y-100323866D02*
X35734286Y-100085771D01*
X35734286Y-100085771D02*
X35781905Y-99895295D01*
X35781905Y-99895295D02*
X35829524Y-99800057D01*
X35829524Y-99800057D02*
X35877143Y-99752438D01*
X35877143Y-99752438D02*
X35972381Y-99704819D01*
X108938095Y-64863919D02*
X108938095Y-63863919D01*
X108938095Y-64340109D02*
X109509523Y-64340109D01*
X109509523Y-64863919D02*
X109509523Y-63863919D01*
X109890476Y-63863919D02*
X110509523Y-63863919D01*
X110509523Y-63863919D02*
X110176190Y-64244871D01*
X110176190Y-64244871D02*
X110319047Y-64244871D01*
X110319047Y-64244871D02*
X110414285Y-64292490D01*
X110414285Y-64292490D02*
X110461904Y-64340109D01*
X110461904Y-64340109D02*
X110509523Y-64435347D01*
X110509523Y-64435347D02*
X110509523Y-64673442D01*
X110509523Y-64673442D02*
X110461904Y-64768680D01*
X110461904Y-64768680D02*
X110414285Y-64816300D01*
X110414285Y-64816300D02*
X110319047Y-64863919D01*
X110319047Y-64863919D02*
X110033333Y-64863919D01*
X110033333Y-64863919D02*
X109938095Y-64816300D01*
X109938095Y-64816300D02*
X109890476Y-64768680D01*
X40964236Y-124191378D02*
X41306355Y-124925055D01*
X41306355Y-124925055D02*
X41389762Y-124991246D01*
X41389762Y-124991246D02*
X41453044Y-125014279D01*
X41453044Y-125014279D02*
X41559484Y-125017187D01*
X41559484Y-125017187D02*
X41732114Y-124936688D01*
X41732114Y-124936688D02*
X41798305Y-124853281D01*
X41798305Y-124853281D02*
X41821337Y-124789999D01*
X41821337Y-124789999D02*
X41824246Y-124683559D01*
X41824246Y-124683559D02*
X41482126Y-123949881D01*
X42302119Y-123567513D02*
X42129489Y-123648011D01*
X42129489Y-123648011D02*
X42063298Y-123731418D01*
X42063298Y-123731418D02*
X42040265Y-123794700D01*
X42040265Y-123794700D02*
X42014325Y-123964422D01*
X42014325Y-123964422D02*
X42051666Y-124157177D01*
X42051666Y-124157177D02*
X42212663Y-124502437D01*
X42212663Y-124502437D02*
X42296070Y-124568627D01*
X42296070Y-124568627D02*
X42359352Y-124591660D01*
X42359352Y-124591660D02*
X42465792Y-124594568D01*
X42465792Y-124594568D02*
X42638422Y-124514070D01*
X42638422Y-124514070D02*
X42704612Y-124430663D01*
X42704612Y-124430663D02*
X42727645Y-124367381D01*
X42727645Y-124367381D02*
X42730553Y-124260941D01*
X42730553Y-124260941D02*
X42629930Y-124045153D01*
X42629930Y-124045153D02*
X42546523Y-123978963D01*
X42546523Y-123978963D02*
X42483241Y-123955930D01*
X42483241Y-123955930D02*
X42376801Y-123953022D01*
X42376801Y-123953022D02*
X42204171Y-124033521D01*
X42204171Y-124033521D02*
X42137981Y-124116928D01*
X42137981Y-124116928D02*
X42114948Y-124180210D01*
X42114948Y-124180210D02*
X42112040Y-124286650D01*
X55854819Y-106383333D02*
X56569104Y-106383333D01*
X56569104Y-106383333D02*
X56711961Y-106430952D01*
X56711961Y-106430952D02*
X56807200Y-106526190D01*
X56807200Y-106526190D02*
X56854819Y-106669047D01*
X56854819Y-106669047D02*
X56854819Y-106764285D01*
X55950057Y-105954761D02*
X55902438Y-105907142D01*
X55902438Y-105907142D02*
X55854819Y-105811904D01*
X55854819Y-105811904D02*
X55854819Y-105573809D01*
X55854819Y-105573809D02*
X55902438Y-105478571D01*
X55902438Y-105478571D02*
X55950057Y-105430952D01*
X55950057Y-105430952D02*
X56045295Y-105383333D01*
X56045295Y-105383333D02*
X56140533Y-105383333D01*
X56140533Y-105383333D02*
X56283390Y-105430952D01*
X56283390Y-105430952D02*
X56854819Y-106002380D01*
X56854819Y-106002380D02*
X56854819Y-105383333D01*
X34258095Y-99204819D02*
X34258095Y-100014342D01*
X34258095Y-100014342D02*
X34305714Y-100109580D01*
X34305714Y-100109580D02*
X34353333Y-100157200D01*
X34353333Y-100157200D02*
X34448571Y-100204819D01*
X34448571Y-100204819D02*
X34639047Y-100204819D01*
X34639047Y-100204819D02*
X34734285Y-100157200D01*
X34734285Y-100157200D02*
X34781904Y-100109580D01*
X34781904Y-100109580D02*
X34829523Y-100014342D01*
X34829523Y-100014342D02*
X34829523Y-99204819D01*
X35353333Y-100204819D02*
X35543809Y-100204819D01*
X35543809Y-100204819D02*
X35639047Y-100157200D01*
X35639047Y-100157200D02*
X35686666Y-100109580D01*
X35686666Y-100109580D02*
X35781904Y-99966723D01*
X35781904Y-99966723D02*
X35829523Y-99776247D01*
X35829523Y-99776247D02*
X35829523Y-99395295D01*
X35829523Y-99395295D02*
X35781904Y-99300057D01*
X35781904Y-99300057D02*
X35734285Y-99252438D01*
X35734285Y-99252438D02*
X35639047Y-99204819D01*
X35639047Y-99204819D02*
X35448571Y-99204819D01*
X35448571Y-99204819D02*
X35353333Y-99252438D01*
X35353333Y-99252438D02*
X35305714Y-99300057D01*
X35305714Y-99300057D02*
X35258095Y-99395295D01*
X35258095Y-99395295D02*
X35258095Y-99633390D01*
X35258095Y-99633390D02*
X35305714Y-99728628D01*
X35305714Y-99728628D02*
X35353333Y-99776247D01*
X35353333Y-99776247D02*
X35448571Y-99823866D01*
X35448571Y-99823866D02*
X35639047Y-99823866D01*
X35639047Y-99823866D02*
X35734285Y-99776247D01*
X35734285Y-99776247D02*
X35781904Y-99728628D01*
X35781904Y-99728628D02*
X35829523Y-99633390D01*
X159927142Y-93024819D02*
X159593809Y-92548628D01*
X159355714Y-93024819D02*
X159355714Y-92024819D01*
X159355714Y-92024819D02*
X159736666Y-92024819D01*
X159736666Y-92024819D02*
X159831904Y-92072438D01*
X159831904Y-92072438D02*
X159879523Y-92120057D01*
X159879523Y-92120057D02*
X159927142Y-92215295D01*
X159927142Y-92215295D02*
X159927142Y-92358152D01*
X159927142Y-92358152D02*
X159879523Y-92453390D01*
X159879523Y-92453390D02*
X159831904Y-92501009D01*
X159831904Y-92501009D02*
X159736666Y-92548628D01*
X159736666Y-92548628D02*
X159355714Y-92548628D01*
X160831904Y-92024819D02*
X160355714Y-92024819D01*
X160355714Y-92024819D02*
X160308095Y-92501009D01*
X160308095Y-92501009D02*
X160355714Y-92453390D01*
X160355714Y-92453390D02*
X160450952Y-92405771D01*
X160450952Y-92405771D02*
X160689047Y-92405771D01*
X160689047Y-92405771D02*
X160784285Y-92453390D01*
X160784285Y-92453390D02*
X160831904Y-92501009D01*
X160831904Y-92501009D02*
X160879523Y-92596247D01*
X160879523Y-92596247D02*
X160879523Y-92834342D01*
X160879523Y-92834342D02*
X160831904Y-92929580D01*
X160831904Y-92929580D02*
X160784285Y-92977200D01*
X160784285Y-92977200D02*
X160689047Y-93024819D01*
X160689047Y-93024819D02*
X160450952Y-93024819D01*
X160450952Y-93024819D02*
X160355714Y-92977200D01*
X160355714Y-92977200D02*
X160308095Y-92929580D01*
X161498571Y-92024819D02*
X161593809Y-92024819D01*
X161593809Y-92024819D02*
X161689047Y-92072438D01*
X161689047Y-92072438D02*
X161736666Y-92120057D01*
X161736666Y-92120057D02*
X161784285Y-92215295D01*
X161784285Y-92215295D02*
X161831904Y-92405771D01*
X161831904Y-92405771D02*
X161831904Y-92643866D01*
X161831904Y-92643866D02*
X161784285Y-92834342D01*
X161784285Y-92834342D02*
X161736666Y-92929580D01*
X161736666Y-92929580D02*
X161689047Y-92977200D01*
X161689047Y-92977200D02*
X161593809Y-93024819D01*
X161593809Y-93024819D02*
X161498571Y-93024819D01*
X161498571Y-93024819D02*
X161403333Y-92977200D01*
X161403333Y-92977200D02*
X161355714Y-92929580D01*
X161355714Y-92929580D02*
X161308095Y-92834342D01*
X161308095Y-92834342D02*
X161260476Y-92643866D01*
X161260476Y-92643866D02*
X161260476Y-92405771D01*
X161260476Y-92405771D02*
X161308095Y-92215295D01*
X161308095Y-92215295D02*
X161355714Y-92120057D01*
X161355714Y-92120057D02*
X161403333Y-92072438D01*
X161403333Y-92072438D02*
X161498571Y-92024819D01*
X89538095Y-64863919D02*
X89538095Y-63863919D01*
X89538095Y-64340109D02*
X90109523Y-64340109D01*
X90109523Y-64863919D02*
X90109523Y-63863919D01*
X90538095Y-63959157D02*
X90585714Y-63911538D01*
X90585714Y-63911538D02*
X90680952Y-63863919D01*
X90680952Y-63863919D02*
X90919047Y-63863919D01*
X90919047Y-63863919D02*
X91014285Y-63911538D01*
X91014285Y-63911538D02*
X91061904Y-63959157D01*
X91061904Y-63959157D02*
X91109523Y-64054395D01*
X91109523Y-64054395D02*
X91109523Y-64149633D01*
X91109523Y-64149633D02*
X91061904Y-64292490D01*
X91061904Y-64292490D02*
X90490476Y-64863919D01*
X90490476Y-64863919D02*
X91109523Y-64863919D01*
X40890909Y-74629272D02*
X40548789Y-75362950D01*
X40548789Y-75362950D02*
X40551698Y-75469390D01*
X40551698Y-75469390D02*
X40574730Y-75532672D01*
X40574730Y-75532672D02*
X40640921Y-75616079D01*
X40640921Y-75616079D02*
X40813551Y-75696578D01*
X40813551Y-75696578D02*
X40919991Y-75693669D01*
X40919991Y-75693669D02*
X40983273Y-75670637D01*
X40983273Y-75670637D02*
X41066680Y-75604446D01*
X41066680Y-75604446D02*
X41408799Y-74870768D01*
X41892489Y-76199694D02*
X41374598Y-75958198D01*
X41633544Y-76078946D02*
X42056162Y-75172639D01*
X42056162Y-75172639D02*
X41909473Y-75261862D01*
X41909473Y-75261862D02*
X41782908Y-75307927D01*
X41782908Y-75307927D02*
X41676469Y-75310836D01*
X42951069Y-75957734D02*
X42669324Y-76561939D01*
X42896279Y-75511850D02*
X42378622Y-76058589D01*
X42378622Y-76058589D02*
X42939669Y-76320210D01*
X16849819Y-110441904D02*
X17659342Y-110441904D01*
X17659342Y-110441904D02*
X17754580Y-110394285D01*
X17754580Y-110394285D02*
X17802200Y-110346666D01*
X17802200Y-110346666D02*
X17849819Y-110251428D01*
X17849819Y-110251428D02*
X17849819Y-110060952D01*
X17849819Y-110060952D02*
X17802200Y-109965714D01*
X17802200Y-109965714D02*
X17754580Y-109918095D01*
X17754580Y-109918095D02*
X17659342Y-109870476D01*
X17659342Y-109870476D02*
X16849819Y-109870476D01*
X16849819Y-109489523D02*
X16849819Y-108822857D01*
X16849819Y-108822857D02*
X17849819Y-109251428D01*
D11*
%TO.C,J1*%
X162660000Y-94340000D02*
X162660000Y-95340000D01*
X162660000Y-95340000D02*
X163660000Y-94840000D01*
X163660000Y-94840000D02*
X162660000Y-94340000D01*
X164050000Y-89630000D02*
X173170000Y-89630000D01*
X164050000Y-97870000D02*
X165360000Y-97870000D01*
X164050000Y-110210000D02*
X164050000Y-89630000D01*
X165360000Y-90930000D02*
X171860000Y-90930000D01*
X165360000Y-97870000D02*
X165360000Y-90930000D01*
X165360000Y-101970000D02*
X164050000Y-101970000D01*
X165360000Y-101970000D02*
X165360000Y-101970000D01*
X165360000Y-108910000D02*
X165360000Y-101970000D01*
X171860000Y-90930000D02*
X171860000Y-108910000D01*
X171860000Y-108910000D02*
X165360000Y-108910000D01*
X173170000Y-89630000D02*
X173170000Y-110210000D01*
X173170000Y-110210000D02*
X164050000Y-110210000D01*
%TO.C,R51*%
X160482936Y-96175000D02*
X160937064Y-96175000D01*
X160482936Y-97645000D02*
X160937064Y-97645000D01*
%TO.C,R52*%
X50934000Y-91280000D02*
X50934000Y-101520000D01*
X54065000Y-91280000D02*
X54065000Y-101520000D01*
X55575000Y-91280000D02*
X50934000Y-91280000D01*
X55575000Y-91280000D02*
X55575000Y-101520000D01*
X55575000Y-94550000D02*
X54065000Y-94550000D01*
X55575000Y-98251000D02*
X54065000Y-98251000D01*
X55575000Y-101520000D02*
X50934000Y-101520000D01*
%TO.C,U15*%
X57570000Y-94790000D02*
X57570000Y-103930000D01*
X57570000Y-102355000D02*
X61510000Y-102355000D01*
X57570000Y-102475000D02*
X61510000Y-102475000D01*
X57570000Y-102595000D02*
X61510000Y-102595000D01*
X57570000Y-103930000D02*
X61510000Y-103930000D01*
X59540000Y-94650000D02*
X59540000Y-94790000D01*
X59540000Y-104070000D02*
X59540000Y-103930000D01*
X61510000Y-94790000D02*
X57570000Y-94790000D01*
X61510000Y-103930000D02*
X61510000Y-94790000D01*
%TO.C,R49*%
X160342936Y-90535000D02*
X160797064Y-90535000D01*
X160342936Y-92005000D02*
X160797064Y-92005000D01*
%TO.C,U12*%
X18505000Y-87630000D02*
X18505000Y-89280000D01*
X18505000Y-91280000D02*
X18505000Y-92930000D01*
X18505000Y-92930000D02*
X23705000Y-92930000D01*
X23705000Y-87630000D02*
X18505000Y-87630000D01*
X23705000Y-92930000D02*
X23705000Y-87630000D01*
X18505000Y-89280000D02*
G75*
G02*
X18505000Y-91280000I0J-1000000D01*
G01*
%TO.C,U10*%
X25900000Y-90040000D02*
X25900000Y-89960000D01*
X25940000Y-90814000D02*
X25940000Y-89186000D01*
X25980000Y-91166000D02*
X25980000Y-88834000D01*
X26020000Y-91435000D02*
X26020000Y-88565000D01*
X26060000Y-91661000D02*
X26060000Y-88339000D01*
X26100000Y-91860000D02*
X26100000Y-88140000D01*
X26140000Y-92039000D02*
X26140000Y-87961000D01*
X26180000Y-92203000D02*
X26180000Y-87797000D01*
X26220000Y-92355000D02*
X26220000Y-87645000D01*
X26260000Y-92498000D02*
X26260000Y-87502000D01*
X26300000Y-92632000D02*
X26300000Y-87368000D01*
X26340000Y-92759000D02*
X26340000Y-87241000D01*
X26380000Y-92880000D02*
X26380000Y-87120000D01*
X26420000Y-92996000D02*
X26420000Y-87004000D01*
X26460000Y-93107000D02*
X26460000Y-86893000D01*
X26500000Y-93214000D02*
X26500000Y-86786000D01*
X26540000Y-93317000D02*
X26540000Y-86683000D01*
X26580000Y-93416000D02*
X26580000Y-86584000D01*
X26620000Y-93512000D02*
X26620000Y-86488000D01*
X26660000Y-93605000D02*
X26660000Y-86395000D01*
X26700000Y-93696000D02*
X26700000Y-86304000D01*
X26740000Y-93784000D02*
X26740000Y-86216000D01*
X26780000Y-93869000D02*
X26780000Y-86131000D01*
X26820000Y-93952000D02*
X26820000Y-86048000D01*
X26859000Y-94033000D02*
X26859000Y-85967000D01*
X26899000Y-94113000D02*
X26899000Y-85887000D01*
X26939000Y-94190000D02*
X26939000Y-85810000D01*
X26979000Y-94265000D02*
X26979000Y-85735000D01*
X27019000Y-94339000D02*
X27019000Y-85661000D01*
X27059000Y-94412000D02*
X27059000Y-85588000D01*
X27099000Y-94482000D02*
X27099000Y-85518000D01*
X27139000Y-94552000D02*
X27139000Y-85448000D01*
X27179000Y-94620000D02*
X27179000Y-85380000D01*
X27219000Y-94686000D02*
X27219000Y-85314000D01*
X27259000Y-94752000D02*
X27259000Y-85248000D01*
X27299000Y-94816000D02*
X27299000Y-85184000D01*
X27339000Y-94879000D02*
X27339000Y-85121000D01*
X27379000Y-94941000D02*
X27379000Y-85059000D01*
X27419000Y-95002000D02*
X27419000Y-84998000D01*
X27459000Y-95062000D02*
X27459000Y-84938000D01*
X27499000Y-95120000D02*
X27499000Y-84880000D01*
X27539000Y-95178000D02*
X27539000Y-84822000D01*
X27579000Y-95235000D02*
X27579000Y-84765000D01*
X27619000Y-95291000D02*
X27619000Y-84709000D01*
X27659000Y-95346000D02*
X27659000Y-84654000D01*
X27699000Y-95400000D02*
X27699000Y-84600000D01*
X27739000Y-95454000D02*
X27739000Y-84546000D01*
X27779000Y-95506000D02*
X27779000Y-84494000D01*
X27819000Y-95558000D02*
X27819000Y-84442000D01*
X27859000Y-95609000D02*
X27859000Y-84391000D01*
X27899000Y-95660000D02*
X27899000Y-84340000D01*
X27939000Y-95709000D02*
X27939000Y-84291000D01*
X27979000Y-95758000D02*
X27979000Y-84242000D01*
X28019000Y-95806000D02*
X28019000Y-84194000D01*
X28059000Y-95854000D02*
X28059000Y-84146000D01*
X28099000Y-95901000D02*
X28099000Y-84099000D01*
X28139000Y-95947000D02*
X28139000Y-84053000D01*
X28179000Y-95993000D02*
X28179000Y-84007000D01*
X28219000Y-96038000D02*
X28219000Y-83962000D01*
X28259000Y-96082000D02*
X28259000Y-83918000D01*
X28299000Y-96126000D02*
X28299000Y-83874000D01*
X28339000Y-96170000D02*
X28339000Y-83830000D01*
X28379000Y-96212000D02*
X28379000Y-83788000D01*
X28419000Y-96254000D02*
X28419000Y-83746000D01*
X28459000Y-96296000D02*
X28459000Y-83704000D01*
X28499000Y-96337000D02*
X28499000Y-83663000D01*
X28539000Y-96378000D02*
X28539000Y-83622000D01*
X28579000Y-96418000D02*
X28579000Y-83582000D01*
X28619000Y-96458000D02*
X28619000Y-83542000D01*
X28659000Y-96497000D02*
X28659000Y-83503000D01*
X28699000Y-96536000D02*
X28699000Y-83464000D01*
X28739000Y-96574000D02*
X28739000Y-83426000D01*
X28779000Y-96612000D02*
X28779000Y-83388000D01*
X28819000Y-96649000D02*
X28819000Y-83351000D01*
X28859000Y-96686000D02*
X28859000Y-83314000D01*
X28899000Y-96722000D02*
X28899000Y-83278000D01*
X28939000Y-96758000D02*
X28939000Y-83242000D01*
X28979000Y-96794000D02*
X28979000Y-83206000D01*
X29019000Y-96829000D02*
X29019000Y-83171000D01*
X29059000Y-96864000D02*
X29059000Y-83136000D01*
X29099000Y-96898000D02*
X29099000Y-83102000D01*
X29139000Y-96932000D02*
X29139000Y-83068000D01*
X29179000Y-96965000D02*
X29179000Y-83035000D01*
X29219000Y-96999000D02*
X29219000Y-83001000D01*
X29259000Y-97031000D02*
X29259000Y-82969000D01*
X29299000Y-97064000D02*
X29299000Y-82936000D01*
X29339000Y-97096000D02*
X29339000Y-82904000D01*
X29379000Y-97127000D02*
X29379000Y-82873000D01*
X29419000Y-97159000D02*
X29419000Y-82841000D01*
X29459000Y-97190000D02*
X29459000Y-82810000D01*
X29499000Y-97220000D02*
X29499000Y-82780000D01*
X29539000Y-97250000D02*
X29539000Y-82750000D01*
X29579000Y-97280000D02*
X29579000Y-82720000D01*
X29619000Y-97310000D02*
X29619000Y-82690000D01*
X29659000Y-97339000D02*
X29659000Y-82661000D01*
X29699000Y-97368000D02*
X29699000Y-82632000D01*
X29739000Y-97397000D02*
X29739000Y-82603000D01*
X29779000Y-97425000D02*
X29779000Y-82575000D01*
X29819000Y-97453000D02*
X29819000Y-82547000D01*
X29859000Y-88560000D02*
X29859000Y-82520000D01*
X29859000Y-97480000D02*
X29859000Y-91440000D01*
X29899000Y-88560000D02*
X29899000Y-82492000D01*
X29899000Y-97508000D02*
X29899000Y-91440000D01*
X29939000Y-88560000D02*
X29939000Y-82465000D01*
X29939000Y-97535000D02*
X29939000Y-91440000D01*
X29979000Y-88560000D02*
X29979000Y-82439000D01*
X29979000Y-97561000D02*
X29979000Y-91440000D01*
X30019000Y-88560000D02*
X30019000Y-82412000D01*
X30019000Y-97588000D02*
X30019000Y-91440000D01*
X30059000Y-88560000D02*
X30059000Y-82386000D01*
X30059000Y-97614000D02*
X30059000Y-91440000D01*
X30099000Y-88560000D02*
X30099000Y-82360000D01*
X30099000Y-97640000D02*
X30099000Y-91440000D01*
X30139000Y-88560000D02*
X30139000Y-82335000D01*
X30139000Y-97665000D02*
X30139000Y-91440000D01*
X30179000Y-88560000D02*
X30179000Y-82310000D01*
X30179000Y-97690000D02*
X30179000Y-91440000D01*
X30219000Y-88560000D02*
X30219000Y-82285000D01*
X30219000Y-97715000D02*
X30219000Y-91440000D01*
X30259000Y-88560000D02*
X30259000Y-82260000D01*
X30259000Y-97740000D02*
X30259000Y-91440000D01*
X30299000Y-88560000D02*
X30299000Y-82236000D01*
X30299000Y-97764000D02*
X30299000Y-91440000D01*
X30339000Y-88560000D02*
X30339000Y-82212000D01*
X30339000Y-97788000D02*
X30339000Y-91440000D01*
X30379000Y-88560000D02*
X30379000Y-82188000D01*
X30379000Y-97812000D02*
X30379000Y-91440000D01*
X30419000Y-88560000D02*
X30419000Y-82165000D01*
X30419000Y-97835000D02*
X30419000Y-91440000D01*
X30459000Y-88560000D02*
X30459000Y-82141000D01*
X30459000Y-97859000D02*
X30459000Y-91440000D01*
X30499000Y-88560000D02*
X30499000Y-82118000D01*
X30499000Y-97882000D02*
X30499000Y-91440000D01*
X30539000Y-88560000D02*
X30539000Y-82096000D01*
X30539000Y-97904000D02*
X30539000Y-91440000D01*
X30579000Y-88560000D02*
X30579000Y-82073000D01*
X30579000Y-97927000D02*
X30579000Y-91440000D01*
X30619000Y-88560000D02*
X30619000Y-82051000D01*
X30619000Y-97949000D02*
X30619000Y-91440000D01*
X30659000Y-88560000D02*
X30659000Y-82029000D01*
X30659000Y-97971000D02*
X30659000Y-91440000D01*
X30699000Y-88560000D02*
X30699000Y-82008000D01*
X30699000Y-97992000D02*
X30699000Y-91440000D01*
X30739000Y-88560000D02*
X30739000Y-81986000D01*
X30739000Y-98014000D02*
X30739000Y-91440000D01*
X30779000Y-88560000D02*
X30779000Y-81965000D01*
X30779000Y-98035000D02*
X30779000Y-91440000D01*
X30819000Y-88560000D02*
X30819000Y-81944000D01*
X30819000Y-98056000D02*
X30819000Y-91440000D01*
X30859000Y-88560000D02*
X30859000Y-81924000D01*
X30859000Y-98076000D02*
X30859000Y-91440000D01*
X30899000Y-88560000D02*
X30899000Y-81903000D01*
X30899000Y-98097000D02*
X30899000Y-91440000D01*
X30939000Y-88560000D02*
X30939000Y-81883000D01*
X30939000Y-98117000D02*
X30939000Y-91440000D01*
X30979000Y-88560000D02*
X30979000Y-81863000D01*
X30979000Y-98137000D02*
X30979000Y-91440000D01*
X31019000Y-88560000D02*
X31019000Y-81844000D01*
X31019000Y-98156000D02*
X31019000Y-91440000D01*
X31059000Y-88560000D02*
X31059000Y-81824000D01*
X31059000Y-98176000D02*
X31059000Y-91440000D01*
X31099000Y-88560000D02*
X31099000Y-81805000D01*
X31099000Y-98195000D02*
X31099000Y-91440000D01*
X31139000Y-88560000D02*
X31139000Y-81786000D01*
X31139000Y-98214000D02*
X31139000Y-91440000D01*
X31179000Y-88560000D02*
X31179000Y-81767000D01*
X31179000Y-98233000D02*
X31179000Y-91440000D01*
X31219000Y-88560000D02*
X31219000Y-81749000D01*
X31219000Y-98251000D02*
X31219000Y-91440000D01*
X31259000Y-88560000D02*
X31259000Y-81731000D01*
X31259000Y-98269000D02*
X31259000Y-91440000D01*
X31299000Y-88560000D02*
X31299000Y-81713000D01*
X31299000Y-98287000D02*
X31299000Y-91440000D01*
X31339000Y-88560000D02*
X31339000Y-81695000D01*
X31339000Y-98305000D02*
X31339000Y-91440000D01*
X31379000Y-88560000D02*
X31379000Y-81677000D01*
X31379000Y-98323000D02*
X31379000Y-91440000D01*
X31419000Y-88560000D02*
X31419000Y-81660000D01*
X31419000Y-98340000D02*
X31419000Y-91440000D01*
X31459000Y-88560000D02*
X31459000Y-81643000D01*
X31459000Y-98357000D02*
X31459000Y-91440000D01*
X31499000Y-88560000D02*
X31499000Y-81626000D01*
X31499000Y-98374000D02*
X31499000Y-91440000D01*
X31539000Y-88560000D02*
X31539000Y-81610000D01*
X31539000Y-98390000D02*
X31539000Y-91440000D01*
X31579000Y-88560000D02*
X31579000Y-81593000D01*
X31579000Y-98407000D02*
X31579000Y-91440000D01*
X31619000Y-88560000D02*
X31619000Y-81577000D01*
X31619000Y-98423000D02*
X31619000Y-91440000D01*
X31659000Y-88560000D02*
X31659000Y-81561000D01*
X31659000Y-98439000D02*
X31659000Y-91440000D01*
X31699000Y-88560000D02*
X31699000Y-81545000D01*
X31699000Y-98455000D02*
X31699000Y-91440000D01*
X31739000Y-88560000D02*
X31739000Y-81530000D01*
X31739000Y-98470000D02*
X31739000Y-91440000D01*
X31779000Y-88560000D02*
X31779000Y-81514000D01*
X31779000Y-98486000D02*
X31779000Y-91440000D01*
X31819000Y-88560000D02*
X31819000Y-81499000D01*
X31819000Y-98501000D02*
X31819000Y-91440000D01*
X31859000Y-88560000D02*
X31859000Y-81484000D01*
X31859000Y-98516000D02*
X31859000Y-91440000D01*
X31899000Y-88560000D02*
X31899000Y-81470000D01*
X31899000Y-98530000D02*
X31899000Y-91440000D01*
X31939000Y-88560000D02*
X31939000Y-81455000D01*
X31939000Y-98545000D02*
X31939000Y-91440000D01*
X31979000Y-88560000D02*
X31979000Y-81441000D01*
X31979000Y-98559000D02*
X31979000Y-91440000D01*
X32019000Y-88560000D02*
X32019000Y-81427000D01*
X32019000Y-98573000D02*
X32019000Y-91440000D01*
X32059000Y-88560000D02*
X32059000Y-81413000D01*
X32059000Y-98587000D02*
X32059000Y-91440000D01*
X32099000Y-88560000D02*
X32099000Y-81400000D01*
X32099000Y-98600000D02*
X32099000Y-91440000D01*
X32139000Y-88560000D02*
X32139000Y-81386000D01*
X32139000Y-98614000D02*
X32139000Y-91440000D01*
X32179000Y-88560000D02*
X32179000Y-81373000D01*
X32179000Y-98627000D02*
X32179000Y-91440000D01*
X32219000Y-88560000D02*
X32219000Y-81360000D01*
X32219000Y-98640000D02*
X32219000Y-91440000D01*
X32259000Y-88560000D02*
X32259000Y-81347000D01*
X32259000Y-98653000D02*
X32259000Y-91440000D01*
X32299000Y-88560000D02*
X32299000Y-81335000D01*
X32299000Y-98665000D02*
X32299000Y-91440000D01*
X32339000Y-88560000D02*
X32339000Y-81322000D01*
X32339000Y-98678000D02*
X32339000Y-91440000D01*
X32379000Y-88560000D02*
X32379000Y-81310000D01*
X32379000Y-98690000D02*
X32379000Y-91440000D01*
X32419000Y-88560000D02*
X32419000Y-81298000D01*
X32419000Y-98702000D02*
X32419000Y-91440000D01*
X32459000Y-88560000D02*
X32459000Y-81286000D01*
X32459000Y-98714000D02*
X32459000Y-91440000D01*
X32499000Y-88560000D02*
X32499000Y-81275000D01*
X32499000Y-98725000D02*
X32499000Y-91440000D01*
X32539000Y-88560000D02*
X32539000Y-81263000D01*
X32539000Y-98737000D02*
X32539000Y-91440000D01*
X32579000Y-88560000D02*
X32579000Y-81252000D01*
X32579000Y-98748000D02*
X32579000Y-91440000D01*
X32619000Y-88560000D02*
X32619000Y-81241000D01*
X32619000Y-98759000D02*
X32619000Y-91440000D01*
X32659000Y-88560000D02*
X32659000Y-81230000D01*
X32659000Y-98770000D02*
X32659000Y-91440000D01*
X32699000Y-88560000D02*
X32699000Y-81220000D01*
X32699000Y-98780000D02*
X32699000Y-91440000D01*
X32739000Y-98791000D02*
X32739000Y-81209000D01*
X32779000Y-98801000D02*
X32779000Y-81199000D01*
X32819000Y-98811000D02*
X32819000Y-81189000D01*
X32859000Y-98821000D02*
X32859000Y-81179000D01*
X32899000Y-98831000D02*
X32899000Y-81169000D01*
X32939000Y-98840000D02*
X32939000Y-81160000D01*
X32979000Y-98849000D02*
X32979000Y-81151000D01*
X33019000Y-98858000D02*
X33019000Y-81142000D01*
X33059000Y-98867000D02*
X33059000Y-81133000D01*
X33099000Y-98876000D02*
X33099000Y-81124000D01*
X33139000Y-98885000D02*
X33139000Y-81115000D01*
X33179000Y-98893000D02*
X33179000Y-81107000D01*
X33219000Y-98901000D02*
X33219000Y-81099000D01*
X33259000Y-98909000D02*
X33259000Y-81091000D01*
X33299000Y-98917000D02*
X33299000Y-81083000D01*
X33339000Y-98924000D02*
X33339000Y-81076000D01*
X33379000Y-98932000D02*
X33379000Y-81068000D01*
X33419000Y-98939000D02*
X33419000Y-81061000D01*
X33459000Y-98946000D02*
X33459000Y-81054000D01*
X33499000Y-98953000D02*
X33499000Y-81047000D01*
X33539000Y-98960000D02*
X33539000Y-81040000D01*
X33579000Y-98966000D02*
X33579000Y-81034000D01*
X33619000Y-98972000D02*
X33619000Y-81028000D01*
X33659000Y-98979000D02*
X33659000Y-81021000D01*
X33699000Y-98984000D02*
X33699000Y-81016000D01*
X33739000Y-98990000D02*
X33739000Y-81010000D01*
X33779000Y-98996000D02*
X33779000Y-81004000D01*
X33819000Y-99001000D02*
X33819000Y-80999000D01*
X33859000Y-99006000D02*
X33859000Y-80994000D01*
X33899000Y-99011000D02*
X33899000Y-80989000D01*
X33939000Y-99016000D02*
X33939000Y-80984000D01*
X33979000Y-99021000D02*
X33979000Y-80979000D01*
X34019000Y-99026000D02*
X34019000Y-80974000D01*
X34059000Y-99030000D02*
X34059000Y-80970000D01*
X34099000Y-99034000D02*
X34099000Y-80966000D01*
X34139000Y-99038000D02*
X34139000Y-80962000D01*
X34179000Y-99042000D02*
X34179000Y-80958000D01*
X34219000Y-99045000D02*
X34219000Y-80955000D01*
X34259000Y-99049000D02*
X34259000Y-80951000D01*
X34299000Y-99052000D02*
X34299000Y-80948000D01*
X34340000Y-99055000D02*
X34340000Y-80945000D01*
X34380000Y-99058000D02*
X34380000Y-80942000D01*
X34420000Y-99061000D02*
X34420000Y-80939000D01*
X34460000Y-99063000D02*
X34460000Y-80937000D01*
X34500000Y-99066000D02*
X34500000Y-80934000D01*
X34540000Y-99068000D02*
X34540000Y-80932000D01*
X34580000Y-99070000D02*
X34580000Y-80930000D01*
X34620000Y-99072000D02*
X34620000Y-80928000D01*
X34660000Y-99073000D02*
X34660000Y-80927000D01*
X34700000Y-99075000D02*
X34700000Y-80925000D01*
X34740000Y-99076000D02*
X34740000Y-80924000D01*
X34780000Y-99077000D02*
X34780000Y-80923000D01*
X34820000Y-99078000D02*
X34820000Y-80922000D01*
X34860000Y-99079000D02*
X34860000Y-80921000D01*
X34900000Y-99080000D02*
X34900000Y-80920000D01*
X34940000Y-99080000D02*
X34940000Y-80920000D01*
X34980000Y-99080000D02*
X34980000Y-80920000D01*
X35020000Y-99081000D02*
X35020000Y-80919000D01*
X43879440Y-96015000D02*
X43879440Y-94215000D01*
X44779440Y-95115000D02*
X42979440Y-95115000D01*
X44140000Y-90000000D02*
G75*
G02*
X25900000Y-90000000I-9120000J0D01*
G01*
X25900000Y-90000000D02*
G75*
G02*
X44140000Y-90000000I9120000J0D01*
G01*
%TO.C,U6*%
X36822244Y-125620982D02*
X34860872Y-121414809D01*
X39784965Y-124239443D02*
X39146810Y-122870918D01*
X43139209Y-122675334D02*
X42501056Y-121306809D01*
X44141464Y-117087197D02*
X34860872Y-121414809D01*
X45464682Y-119924846D02*
X36184091Y-124252457D01*
X46102836Y-121293371D02*
X36822244Y-125620982D01*
X46102836Y-121293371D02*
X44141464Y-117087197D01*
%TO.C,J2*%
X49340000Y-102240000D02*
X49340000Y-109860000D01*
X49340000Y-109860000D02*
X55310000Y-109860000D01*
X50100000Y-103000000D02*
X50100000Y-106050000D01*
X50100000Y-109100000D02*
X50100000Y-106050000D01*
X53050000Y-102250000D02*
X53050000Y-103000000D01*
X53050000Y-103000000D02*
X50100000Y-103000000D01*
X53050000Y-109100000D02*
X50100000Y-109100000D01*
X53050000Y-109850000D02*
X53050000Y-109100000D01*
X54550000Y-102250000D02*
X54550000Y-104050000D01*
X54550000Y-104050000D02*
X55300000Y-104050000D01*
X54550000Y-105550000D02*
X54550000Y-106550000D01*
X54550000Y-106550000D02*
X55300000Y-106550000D01*
X54550000Y-108050000D02*
X54550000Y-109850000D01*
X54550000Y-109850000D02*
X55300000Y-109850000D01*
X55300000Y-102250000D02*
X54550000Y-102250000D01*
X55300000Y-104050000D02*
X55300000Y-102250000D01*
X55300000Y-105550000D02*
X54550000Y-105550000D01*
X55300000Y-106550000D02*
X55300000Y-105550000D01*
X55300000Y-108050000D02*
X54550000Y-108050000D01*
X55300000Y-109850000D02*
X55300000Y-108050000D01*
X55310000Y-102240000D02*
X49340000Y-102240000D01*
X55310000Y-109860000D02*
X55310000Y-102240000D01*
X55600000Y-101950000D02*
X54350000Y-101950000D01*
X55600000Y-103200000D02*
X55600000Y-101950000D01*
%TO.C,U9*%
X25260560Y-104885000D02*
X27060560Y-104885000D01*
X26160560Y-103985000D02*
X26160560Y-105785000D01*
X35020000Y-100919000D02*
X35020000Y-119081000D01*
X35060000Y-100920000D02*
X35060000Y-119080000D01*
X35100000Y-100920000D02*
X35100000Y-119080000D01*
X35140000Y-100920000D02*
X35140000Y-119080000D01*
X35180000Y-100921000D02*
X35180000Y-119079000D01*
X35220000Y-100922000D02*
X35220000Y-119078000D01*
X35260000Y-100923000D02*
X35260000Y-119077000D01*
X35300000Y-100924000D02*
X35300000Y-119076000D01*
X35340000Y-100925000D02*
X35340000Y-119075000D01*
X35380000Y-100927000D02*
X35380000Y-119073000D01*
X35420000Y-100928000D02*
X35420000Y-119072000D01*
X35460000Y-100930000D02*
X35460000Y-119070000D01*
X35500000Y-100932000D02*
X35500000Y-119068000D01*
X35540000Y-100934000D02*
X35540000Y-119066000D01*
X35580000Y-100937000D02*
X35580000Y-119063000D01*
X35620000Y-100939000D02*
X35620000Y-119061000D01*
X35660000Y-100942000D02*
X35660000Y-119058000D01*
X35700000Y-100945000D02*
X35700000Y-119055000D01*
X35741000Y-100948000D02*
X35741000Y-119052000D01*
X35781000Y-100951000D02*
X35781000Y-119049000D01*
X35821000Y-100955000D02*
X35821000Y-119045000D01*
X35861000Y-100958000D02*
X35861000Y-119042000D01*
X35901000Y-100962000D02*
X35901000Y-119038000D01*
X35941000Y-100966000D02*
X35941000Y-119034000D01*
X35981000Y-100970000D02*
X35981000Y-119030000D01*
X36021000Y-100974000D02*
X36021000Y-119026000D01*
X36061000Y-100979000D02*
X36061000Y-119021000D01*
X36101000Y-100984000D02*
X36101000Y-119016000D01*
X36141000Y-100989000D02*
X36141000Y-119011000D01*
X36181000Y-100994000D02*
X36181000Y-119006000D01*
X36221000Y-100999000D02*
X36221000Y-119001000D01*
X36261000Y-101004000D02*
X36261000Y-118996000D01*
X36301000Y-101010000D02*
X36301000Y-118990000D01*
X36341000Y-101016000D02*
X36341000Y-118984000D01*
X36381000Y-101021000D02*
X36381000Y-118979000D01*
X36421000Y-101028000D02*
X36421000Y-118972000D01*
X36461000Y-101034000D02*
X36461000Y-118966000D01*
X36501000Y-101040000D02*
X36501000Y-118960000D01*
X36541000Y-101047000D02*
X36541000Y-118953000D01*
X36581000Y-101054000D02*
X36581000Y-118946000D01*
X36621000Y-101061000D02*
X36621000Y-118939000D01*
X36661000Y-101068000D02*
X36661000Y-118932000D01*
X36701000Y-101076000D02*
X36701000Y-118924000D01*
X36741000Y-101083000D02*
X36741000Y-118917000D01*
X36781000Y-101091000D02*
X36781000Y-118909000D01*
X36821000Y-101099000D02*
X36821000Y-118901000D01*
X36861000Y-101107000D02*
X36861000Y-118893000D01*
X36901000Y-101115000D02*
X36901000Y-118885000D01*
X36941000Y-101124000D02*
X36941000Y-118876000D01*
X36981000Y-101133000D02*
X36981000Y-118867000D01*
X37021000Y-101142000D02*
X37021000Y-118858000D01*
X37061000Y-101151000D02*
X37061000Y-118849000D01*
X37101000Y-101160000D02*
X37101000Y-118840000D01*
X37141000Y-101169000D02*
X37141000Y-118831000D01*
X37181000Y-101179000D02*
X37181000Y-118821000D01*
X37221000Y-101189000D02*
X37221000Y-118811000D01*
X37261000Y-101199000D02*
X37261000Y-118801000D01*
X37301000Y-101209000D02*
X37301000Y-118791000D01*
X37341000Y-101220000D02*
X37341000Y-108560000D01*
X37341000Y-111440000D02*
X37341000Y-118780000D01*
X37381000Y-101230000D02*
X37381000Y-108560000D01*
X37381000Y-111440000D02*
X37381000Y-118770000D01*
X37421000Y-101241000D02*
X37421000Y-108560000D01*
X37421000Y-111440000D02*
X37421000Y-118759000D01*
X37461000Y-101252000D02*
X37461000Y-108560000D01*
X37461000Y-111440000D02*
X37461000Y-118748000D01*
X37501000Y-101263000D02*
X37501000Y-108560000D01*
X37501000Y-111440000D02*
X37501000Y-118737000D01*
X37541000Y-101275000D02*
X37541000Y-108560000D01*
X37541000Y-111440000D02*
X37541000Y-118725000D01*
X37581000Y-101286000D02*
X37581000Y-108560000D01*
X37581000Y-111440000D02*
X37581000Y-118714000D01*
X37621000Y-101298000D02*
X37621000Y-108560000D01*
X37621000Y-111440000D02*
X37621000Y-118702000D01*
X37661000Y-101310000D02*
X37661000Y-108560000D01*
X37661000Y-111440000D02*
X37661000Y-118690000D01*
X37701000Y-101322000D02*
X37701000Y-108560000D01*
X37701000Y-111440000D02*
X37701000Y-118678000D01*
X37741000Y-101335000D02*
X37741000Y-108560000D01*
X37741000Y-111440000D02*
X37741000Y-118665000D01*
X37781000Y-101347000D02*
X37781000Y-108560000D01*
X37781000Y-111440000D02*
X37781000Y-118653000D01*
X37821000Y-101360000D02*
X37821000Y-108560000D01*
X37821000Y-111440000D02*
X37821000Y-118640000D01*
X37861000Y-101373000D02*
X37861000Y-108560000D01*
X37861000Y-111440000D02*
X37861000Y-118627000D01*
X37901000Y-101386000D02*
X37901000Y-108560000D01*
X37901000Y-111440000D02*
X37901000Y-118614000D01*
X37941000Y-101400000D02*
X37941000Y-108560000D01*
X37941000Y-111440000D02*
X37941000Y-118600000D01*
X37981000Y-101413000D02*
X37981000Y-108560000D01*
X37981000Y-111440000D02*
X37981000Y-118587000D01*
X38021000Y-101427000D02*
X38021000Y-108560000D01*
X38021000Y-111440000D02*
X38021000Y-118573000D01*
X38061000Y-101441000D02*
X38061000Y-108560000D01*
X38061000Y-111440000D02*
X38061000Y-118559000D01*
X38101000Y-101455000D02*
X38101000Y-108560000D01*
X38101000Y-111440000D02*
X38101000Y-118545000D01*
X38141000Y-101470000D02*
X38141000Y-108560000D01*
X38141000Y-111440000D02*
X38141000Y-118530000D01*
X38181000Y-101484000D02*
X38181000Y-108560000D01*
X38181000Y-111440000D02*
X38181000Y-118516000D01*
X38221000Y-101499000D02*
X38221000Y-108560000D01*
X38221000Y-111440000D02*
X38221000Y-118501000D01*
X38261000Y-101514000D02*
X38261000Y-108560000D01*
X38261000Y-111440000D02*
X38261000Y-118486000D01*
X38301000Y-101530000D02*
X38301000Y-108560000D01*
X38301000Y-111440000D02*
X38301000Y-118470000D01*
X38341000Y-101545000D02*
X38341000Y-108560000D01*
X38341000Y-111440000D02*
X38341000Y-118455000D01*
X38381000Y-101561000D02*
X38381000Y-108560000D01*
X38381000Y-111440000D02*
X38381000Y-118439000D01*
X38421000Y-101577000D02*
X38421000Y-108560000D01*
X38421000Y-111440000D02*
X38421000Y-118423000D01*
X38461000Y-101593000D02*
X38461000Y-108560000D01*
X38461000Y-111440000D02*
X38461000Y-118407000D01*
X38501000Y-101610000D02*
X38501000Y-108560000D01*
X38501000Y-111440000D02*
X38501000Y-118390000D01*
X38541000Y-101626000D02*
X38541000Y-108560000D01*
X38541000Y-111440000D02*
X38541000Y-118374000D01*
X38581000Y-101643000D02*
X38581000Y-108560000D01*
X38581000Y-111440000D02*
X38581000Y-118357000D01*
X38621000Y-101660000D02*
X38621000Y-108560000D01*
X38621000Y-111440000D02*
X38621000Y-118340000D01*
X38661000Y-101677000D02*
X38661000Y-108560000D01*
X38661000Y-111440000D02*
X38661000Y-118323000D01*
X38701000Y-101695000D02*
X38701000Y-108560000D01*
X38701000Y-111440000D02*
X38701000Y-118305000D01*
X38741000Y-101713000D02*
X38741000Y-108560000D01*
X38741000Y-111440000D02*
X38741000Y-118287000D01*
X38781000Y-101731000D02*
X38781000Y-108560000D01*
X38781000Y-111440000D02*
X38781000Y-118269000D01*
X38821000Y-101749000D02*
X38821000Y-108560000D01*
X38821000Y-111440000D02*
X38821000Y-118251000D01*
X38861000Y-101767000D02*
X38861000Y-108560000D01*
X38861000Y-111440000D02*
X38861000Y-118233000D01*
X38901000Y-101786000D02*
X38901000Y-108560000D01*
X38901000Y-111440000D02*
X38901000Y-118214000D01*
X38941000Y-101805000D02*
X38941000Y-108560000D01*
X38941000Y-111440000D02*
X38941000Y-118195000D01*
X38981000Y-101824000D02*
X38981000Y-108560000D01*
X38981000Y-111440000D02*
X38981000Y-118176000D01*
X39021000Y-101844000D02*
X39021000Y-108560000D01*
X39021000Y-111440000D02*
X39021000Y-118156000D01*
X39061000Y-101863000D02*
X39061000Y-108560000D01*
X39061000Y-111440000D02*
X39061000Y-118137000D01*
X39101000Y-101883000D02*
X39101000Y-108560000D01*
X39101000Y-111440000D02*
X39101000Y-118117000D01*
X39141000Y-101903000D02*
X39141000Y-108560000D01*
X39141000Y-111440000D02*
X39141000Y-118097000D01*
X39181000Y-101924000D02*
X39181000Y-108560000D01*
X39181000Y-111440000D02*
X39181000Y-118076000D01*
X39221000Y-101944000D02*
X39221000Y-108560000D01*
X39221000Y-111440000D02*
X39221000Y-118056000D01*
X39261000Y-101965000D02*
X39261000Y-108560000D01*
X39261000Y-111440000D02*
X39261000Y-118035000D01*
X39301000Y-101986000D02*
X39301000Y-108560000D01*
X39301000Y-111440000D02*
X39301000Y-118014000D01*
X39341000Y-102008000D02*
X39341000Y-108560000D01*
X39341000Y-111440000D02*
X39341000Y-117992000D01*
X39381000Y-102029000D02*
X39381000Y-108560000D01*
X39381000Y-111440000D02*
X39381000Y-117971000D01*
X39421000Y-102051000D02*
X39421000Y-108560000D01*
X39421000Y-111440000D02*
X39421000Y-117949000D01*
X39461000Y-102073000D02*
X39461000Y-108560000D01*
X39461000Y-111440000D02*
X39461000Y-117927000D01*
X39501000Y-102096000D02*
X39501000Y-108560000D01*
X39501000Y-111440000D02*
X39501000Y-117904000D01*
X39541000Y-102118000D02*
X39541000Y-108560000D01*
X39541000Y-111440000D02*
X39541000Y-117882000D01*
X39581000Y-102141000D02*
X39581000Y-108560000D01*
X39581000Y-111440000D02*
X39581000Y-117859000D01*
X39621000Y-102165000D02*
X39621000Y-108560000D01*
X39621000Y-111440000D02*
X39621000Y-117835000D01*
X39661000Y-102188000D02*
X39661000Y-108560000D01*
X39661000Y-111440000D02*
X39661000Y-117812000D01*
X39701000Y-102212000D02*
X39701000Y-108560000D01*
X39701000Y-111440000D02*
X39701000Y-117788000D01*
X39741000Y-102236000D02*
X39741000Y-108560000D01*
X39741000Y-111440000D02*
X39741000Y-117764000D01*
X39781000Y-102260000D02*
X39781000Y-108560000D01*
X39781000Y-111440000D02*
X39781000Y-117740000D01*
X39821000Y-102285000D02*
X39821000Y-108560000D01*
X39821000Y-111440000D02*
X39821000Y-117715000D01*
X39861000Y-102310000D02*
X39861000Y-108560000D01*
X39861000Y-111440000D02*
X39861000Y-117690000D01*
X39901000Y-102335000D02*
X39901000Y-108560000D01*
X39901000Y-111440000D02*
X39901000Y-117665000D01*
X39941000Y-102360000D02*
X39941000Y-108560000D01*
X39941000Y-111440000D02*
X39941000Y-117640000D01*
X39981000Y-102386000D02*
X39981000Y-108560000D01*
X39981000Y-111440000D02*
X39981000Y-117614000D01*
X40021000Y-102412000D02*
X40021000Y-108560000D01*
X40021000Y-111440000D02*
X40021000Y-117588000D01*
X40061000Y-102439000D02*
X40061000Y-108560000D01*
X40061000Y-111440000D02*
X40061000Y-117561000D01*
X40101000Y-102465000D02*
X40101000Y-108560000D01*
X40101000Y-111440000D02*
X40101000Y-117535000D01*
X40141000Y-102492000D02*
X40141000Y-108560000D01*
X40141000Y-111440000D02*
X40141000Y-117508000D01*
X40181000Y-102520000D02*
X40181000Y-108560000D01*
X40181000Y-111440000D02*
X40181000Y-117480000D01*
X40221000Y-102547000D02*
X40221000Y-117453000D01*
X40261000Y-102575000D02*
X40261000Y-117425000D01*
X40301000Y-102603000D02*
X40301000Y-117397000D01*
X40341000Y-102632000D02*
X40341000Y-117368000D01*
X40381000Y-102661000D02*
X40381000Y-117339000D01*
X40421000Y-102690000D02*
X40421000Y-117310000D01*
X40461000Y-102720000D02*
X40461000Y-117280000D01*
X40501000Y-102750000D02*
X40501000Y-117250000D01*
X40541000Y-102780000D02*
X40541000Y-117220000D01*
X40581000Y-102810000D02*
X40581000Y-117190000D01*
X40621000Y-102841000D02*
X40621000Y-117159000D01*
X40661000Y-102873000D02*
X40661000Y-117127000D01*
X40701000Y-102904000D02*
X40701000Y-117096000D01*
X40741000Y-102936000D02*
X40741000Y-117064000D01*
X40781000Y-102969000D02*
X40781000Y-117031000D01*
X40821000Y-103001000D02*
X40821000Y-116999000D01*
X40861000Y-103035000D02*
X40861000Y-116965000D01*
X40901000Y-103068000D02*
X40901000Y-116932000D01*
X40941000Y-103102000D02*
X40941000Y-116898000D01*
X40981000Y-103136000D02*
X40981000Y-116864000D01*
X41021000Y-103171000D02*
X41021000Y-116829000D01*
X41061000Y-103206000D02*
X41061000Y-116794000D01*
X41101000Y-103242000D02*
X41101000Y-116758000D01*
X41141000Y-103278000D02*
X41141000Y-116722000D01*
X41181000Y-103314000D02*
X41181000Y-116686000D01*
X41221000Y-103351000D02*
X41221000Y-116649000D01*
X41261000Y-103388000D02*
X41261000Y-116612000D01*
X41301000Y-103426000D02*
X41301000Y-116574000D01*
X41341000Y-103464000D02*
X41341000Y-116536000D01*
X41381000Y-103503000D02*
X41381000Y-116497000D01*
X41421000Y-103542000D02*
X41421000Y-116458000D01*
X41461000Y-103582000D02*
X41461000Y-116418000D01*
X41501000Y-103622000D02*
X41501000Y-116378000D01*
X41541000Y-103663000D02*
X41541000Y-116337000D01*
X41581000Y-103704000D02*
X41581000Y-116296000D01*
X41621000Y-103746000D02*
X41621000Y-116254000D01*
X41661000Y-103788000D02*
X41661000Y-116212000D01*
X41701000Y-103830000D02*
X41701000Y-116170000D01*
X41741000Y-103874000D02*
X41741000Y-116126000D01*
X41781000Y-103918000D02*
X41781000Y-116082000D01*
X41821000Y-103962000D02*
X41821000Y-116038000D01*
X41861000Y-104007000D02*
X41861000Y-115993000D01*
X41901000Y-104053000D02*
X41901000Y-115947000D01*
X41941000Y-104099000D02*
X41941000Y-115901000D01*
X41981000Y-104146000D02*
X41981000Y-115854000D01*
X42021000Y-104194000D02*
X42021000Y-115806000D01*
X42061000Y-104242000D02*
X42061000Y-115758000D01*
X42101000Y-104291000D02*
X42101000Y-115709000D01*
X42141000Y-104340000D02*
X42141000Y-115660000D01*
X42181000Y-104391000D02*
X42181000Y-115609000D01*
X42221000Y-104442000D02*
X42221000Y-115558000D01*
X42261000Y-104494000D02*
X42261000Y-115506000D01*
X42301000Y-104546000D02*
X42301000Y-115454000D01*
X42341000Y-104600000D02*
X42341000Y-115400000D01*
X42381000Y-104654000D02*
X42381000Y-115346000D01*
X42421000Y-104709000D02*
X42421000Y-115291000D01*
X42461000Y-104765000D02*
X42461000Y-115235000D01*
X42501000Y-104822000D02*
X42501000Y-115178000D01*
X42541000Y-104880000D02*
X42541000Y-115120000D01*
X42581000Y-104938000D02*
X42581000Y-115062000D01*
X42621000Y-104998000D02*
X42621000Y-115002000D01*
X42661000Y-105059000D02*
X42661000Y-114941000D01*
X42701000Y-105121000D02*
X42701000Y-114879000D01*
X42741000Y-105184000D02*
X42741000Y-114816000D01*
X42781000Y-105248000D02*
X42781000Y-114752000D01*
X42821000Y-105314000D02*
X42821000Y-114686000D01*
X42861000Y-105380000D02*
X42861000Y-114620000D01*
X42901000Y-105448000D02*
X42901000Y-114552000D01*
X42941000Y-105518000D02*
X42941000Y-114482000D01*
X42981000Y-105588000D02*
X42981000Y-114412000D01*
X43021000Y-105661000D02*
X43021000Y-114339000D01*
X43061000Y-105735000D02*
X43061000Y-114265000D01*
X43101000Y-105810000D02*
X43101000Y-114190000D01*
X43141000Y-105887000D02*
X43141000Y-114113000D01*
X43181000Y-105967000D02*
X43181000Y-114033000D01*
X43220000Y-106048000D02*
X43220000Y-113952000D01*
X43260000Y-106131000D02*
X43260000Y-113869000D01*
X43300000Y-106216000D02*
X43300000Y-113784000D01*
X43340000Y-106304000D02*
X43340000Y-113696000D01*
X43380000Y-106395000D02*
X43380000Y-113605000D01*
X43420000Y-106488000D02*
X43420000Y-113512000D01*
X43460000Y-106584000D02*
X43460000Y-113416000D01*
X43500000Y-106683000D02*
X43500000Y-113317000D01*
X43540000Y-106786000D02*
X43540000Y-113214000D01*
X43580000Y-106893000D02*
X43580000Y-113107000D01*
X43620000Y-107004000D02*
X43620000Y-112996000D01*
X43660000Y-107120000D02*
X43660000Y-112880000D01*
X43700000Y-107241000D02*
X43700000Y-112759000D01*
X43740000Y-107368000D02*
X43740000Y-112632000D01*
X43780000Y-107502000D02*
X43780000Y-112498000D01*
X43820000Y-107645000D02*
X43820000Y-112355000D01*
X43860000Y-107797000D02*
X43860000Y-112203000D01*
X43900000Y-107961000D02*
X43900000Y-112039000D01*
X43940000Y-108140000D02*
X43940000Y-111860000D01*
X43980000Y-108339000D02*
X43980000Y-111661000D01*
X44020000Y-108565000D02*
X44020000Y-111435000D01*
X44060000Y-108834000D02*
X44060000Y-111166000D01*
X44100000Y-109186000D02*
X44100000Y-110814000D01*
X44140000Y-109960000D02*
X44140000Y-110040000D01*
X44140000Y-110000000D02*
G75*
G02*
X25900000Y-110000000I-9120000J0D01*
G01*
X25900000Y-110000000D02*
G75*
G02*
X44140000Y-110000000I9120000J0D01*
G01*
%TO.C,R50*%
X160342936Y-93485000D02*
X160797064Y-93485000D01*
X160342936Y-94955000D02*
X160797064Y-94955000D01*
%TO.C,U14*%
X34758316Y-78595293D02*
X44038908Y-82922904D01*
X36081534Y-75757642D02*
X45362126Y-80085254D01*
X36719687Y-74389118D02*
X34758316Y-78595293D01*
X36719687Y-74389118D02*
X46000279Y-78716730D01*
X39683314Y-75771081D02*
X39045161Y-77139605D01*
X43037560Y-77335191D02*
X42399407Y-78703716D01*
X46000279Y-78716730D02*
X44038908Y-82922904D01*
%TO.C,U7*%
X18395000Y-107030000D02*
X18395000Y-108680000D01*
X18395000Y-110680000D02*
X18395000Y-112330000D01*
X18395000Y-112330000D02*
X23595000Y-112330000D01*
X23595000Y-107030000D02*
X18395000Y-107030000D01*
X23595000Y-112330000D02*
X23595000Y-107030000D01*
X18395000Y-108680000D02*
G75*
G02*
X18395000Y-110680000I0J-1000000D01*
G01*
%TD*%
M02*
